<svg width="146" height="146" viewBox="0 0 146 146" fill="none" xmlns="http://www.w3.org/2000/svg"><circle cx="73" cy="73" r="73" fill="#F7F7F8" /><path d="M72.7305 56C54.0625 56 43 73.5 43 73.5C43 73.5 54.0625 91 72.7305 91C90.9375 91 102 73.5 102 73.5C102 73.5 90.9375 56 72.7305 56ZM72.5 62.4474C78.6305 62.4474 83.5625 67.375 83.5625 73.5C83.5625 79.625 78.6305 84.5526 72.5 84.5526C66.3695 84.5526 61.4375 79.625 61.4375 73.5C61.4375 67.375 66.3695 62.4474 72.5 62.4474ZM72.5 67.9737C69.4578 67.9737 66.9688 70.4605 66.9688 73.5C66.9688 76.5395 69.4578 79.0263 72.5 79.0263C75.5422 79.0263 78.0312 76.5395 78.0312 73.5C78.0312 72.625 77.8524 71.8481 77.4837 71.1108C77.161 71.4792 76.6941 71.6579 76.187 71.6579C75.173 71.6579 74.3433 70.8289 74.3433 69.8158C74.3433 69.3092 74.5221 68.8427 74.8909 68.5203C74.1534 68.1519 73.3758 67.9732 72.4995 67.9732L72.5 67.9737Z" fill="#1D1F20"/><line x1="105" y1="40.8284" x2="37.8284" y2="108" stroke="#1D1F20" stroke-width="4" stroke-linecap="round" stroke-linejoin="round"/></svg>